<?xml version="1.0" encoding="UTF-8" standalone="no"?>
<!DOCTYPE svg PUBLIC "-//W3C//DTD SVG 1.1//EN" "http://www.w3.org/Graphics/SVG/1.1/DTD/svg11.dtd">
<svg width="100%" height="100%" viewBox="0 0 172 140" version="1.1" xmlns="http://www.w3.org/2000/svg" xmlns:xlink="http://www.w3.org/1999/xlink" xml:space="preserve" xmlns:serif="http://www.serif.com/" style="fill-rule:evenodd;clip-rule:evenodd;stroke-linecap:round;stroke-linejoin:round;">
    <g transform="matrix(0.866025,-0.5,0.5,0.866025,-350.716,-481.061)">
        <path d="M156.69,768.685C156.168,768.685 155.91,768.616 155.703,768.538C155.497,768.46 155.344,768.371 155.267,768.327C155.191,768.283 155.191,768.283 154.758,768.033C154.324,767.783 153.458,767.283 153.025,767.033C152.592,766.783 152.592,766.783 149.988,765.28C147.384,763.778 142.176,760.772 137.428,759.031C132.68,757.289 128.392,756.811 124.174,756.34C119.956,755.87 115.809,755.408 113.195,755.116C110.581,754.825 109.499,754.704 108.401,754.581C107.303,754.459 106.189,754.335 105.082,754.189C103.975,754.044 102.877,753.877 102.327,753.794C101.778,753.711 101.778,753.711 101.353,753.646C100.928,753.582 100.078,753.453 99.652,753.388C99.227,753.323 99.227,753.323 98.983,753.286C98.739,753.249 98.25,753.175 97.825,752.928C97.4,752.681 97.039,752.261 96.858,751.803C96.678,751.346 96.678,750.852 96.678,750.605L96.678,737.451C96.678,737.175 96.678,736.623 96.454,736.123C96.23,735.623 95.783,735.176 95.283,734.952C94.783,734.728 94.231,734.728 93.955,734.728L33.432,734.728C33.156,734.728 32.604,734.728 32.104,734.504C31.604,734.281 31.156,733.833 30.932,733.333C30.708,732.833 30.708,732.281 30.708,732.004L30.708,650.003C30.708,649.777 30.708,649.324 30.86,648.9C31.012,648.476 31.315,648.08 31.685,647.824C32.055,647.567 32.492,647.449 32.71,647.391C32.929,647.332 32.929,647.332 33.299,647.232C33.669,647.133 34.409,646.934 34.779,646.834C35.149,646.734 35.149,646.734 40.043,645.417C44.938,644.1 54.726,641.466 63.604,639.508C72.482,637.551 80.449,636.27 87.733,635.63C95.017,634.99 101.618,634.99 107.993,634.99C114.368,634.99 120.516,634.99 126.079,635.528C131.641,636.067 136.619,637.145 141.152,638.792C145.686,640.439 149.776,642.655 151.822,643.764C153.867,644.872 153.867,644.872 154.129,645.014C154.39,645.156 154.914,645.439 155.176,645.581C155.437,645.723 155.437,645.723 155.599,645.81C155.76,645.898 156.083,646.073 156.344,646.329C156.606,646.585 156.807,646.922 156.908,647.275C157.008,647.627 157.008,647.994 157.008,648.177L157.008,698.924C157.008,700.075 157.008,702.379 158.193,704.409C159.379,706.439 161.75,708.197 165.593,710.61C169.435,713.023 174.75,716.091 177.407,717.625C180.065,719.159 180.065,719.159 180.497,719.409C180.93,719.659 181.796,720.159 182.229,720.409C182.661,720.658 182.661,720.658 182.901,720.796C183.14,720.935 183.618,721.211 183.939,721.654C184.26,722.098 184.424,722.709 184.368,723.254C184.312,723.799 184.036,724.277 183.898,724.516C183.76,724.755 183.76,724.755 179.682,731.827C175.603,738.898 167.446,753.041 163.368,760.112C159.289,767.183 159.289,767.183 159.223,767.298C159.157,767.413 159.024,767.643 158.849,767.842C158.673,768.041 158.455,768.208 158.217,768.326C157.98,768.445 157.724,768.513 157.553,768.559C157.382,768.605 157.297,768.628 157.189,768.648C157.081,768.668 156.951,768.685 156.69,768.685" style="fill:none;stroke:rgb(187,44,0);stroke-width:0.85px;"/>
    </g>
</svg>
