<?xml version="1.0" encoding="UTF-8" standalone="no"?>
<!DOCTYPE svg PUBLIC "-//W3C//DTD SVG 1.1//EN" "http://www.w3.org/Graphics/SVG/1.1/DTD/svg11.dtd">
<svg width="100%" height="100%" viewBox="0 0 176 144" version="1.1" xmlns="http://www.w3.org/2000/svg" xmlns:xlink="http://www.w3.org/1999/xlink" xml:space="preserve" xmlns:serif="http://www.serif.com/" style="fill-rule:evenodd;clip-rule:evenodd;stroke-linecap:round;stroke-linejoin:round;stroke-miterlimit:1.5;">
    <g transform="matrix(0.866025,-0.5,0.5,0.866025,-348.877,-479.083)">
        <path d="M158.95,695.923C159.115,686.571 159.039,679.906 159.039,679.69L159.039,648.756C159.039,644.867 156.41,644.146 156.41,644.146C156.41,644.146 153.745,642.454 149.712,640.725C145.679,638.997 139.767,636.134 126.363,634.279C104.457,630.522 76.883,635.273 67.952,637.016C59.035,638.455 37.407,643.801 32.876,645.047C28.951,646.235 28.663,650.124 28.663,650.124C28.663,650.124 28.538,726.451 28.62,731.392C28.703,736.332 34.001,736.643 34.001,736.643C34.001,736.643 88.389,736.3 91.652,736.59C94.916,736.881 94.681,739.729 94.681,739.729C94.681,739.729 94.567,745.727 94.694,748.976C94.82,752.226 95.375,754.464 99.251,755.095C110.971,757.188 125.189,757.893 129.71,759.024C139.004,760.509 150.189,767.629 154.325,769.866C158.46,772.103 161.119,768.178 161.119,768.178C161.119,768.178 184.33,727.664 185.469,725.85C186.609,724.035 187.242,720.743 183.739,718.802C180.236,716.861 173.671,712.966 167.835,709.089C161.87,705.126 158.785,705.275 158.95,695.923Z" style="fill:none;stroke:rgb(255,0,0);stroke-width:1px;"/>
    </g>
</svg>
